<svg width="61" height="34" viewBox="0 0 61 34" fill="none" xmlns="http://www.w3.org/2000/svg">
<path d="M11.0981 22.0226C10.4634 22.0226 9.9893 21.439 10.1193 20.8178L10.155 20.6473C10.2048 20.4093 10.3395 20.1976 10.5341 20.0519L14.7003 16.9296C15.0507 16.6576 15.3233 16.4232 15.518 16.2262C15.7127 16.0292 15.8489 15.8416 15.9268 15.6634C16.0144 15.4852 16.0582 15.307 16.0582 15.1288C16.0582 14.8568 15.9512 14.6364 15.737 14.4676C15.5228 14.2988 15.2162 14.2143 14.8171 14.2143C14.4667 14.2143 14.126 14.3034 13.795 14.4816C13.7162 14.5231 13.6391 14.5688 13.5638 14.6187C13.1478 14.8943 12.6053 15 12.184 14.7325L11.857 14.5248C11.3825 14.2235 11.2448 13.5784 11.669 13.2097C11.9733 12.9453 12.3266 12.7174 12.7291 12.5261C13.4786 12.1603 14.3207 11.9774 15.2552 11.9774C15.995 11.9774 16.6472 12.0946 17.2118 12.3291C17.7861 12.5636 18.229 12.8872 18.5405 13.2999C18.8617 13.7032 19.0223 14.1721 19.0223 14.7068C19.0223 15.1007 18.9493 15.4805 18.8033 15.8463C18.6573 16.2121 18.4091 16.5873 18.0586 16.9719C17.7179 17.347 17.241 17.7597 16.6277 18.2099L13.5432 20.5104C13.339 20.6627 13.0459 20.5794 12.9523 20.3424C12.8522 20.0887 13.0392 19.8138 13.312 19.8138H17.0586C17.6942 19.8138 18.1685 20.3989 18.037 21.0207L17.9928 21.2296C17.895 21.6919 17.487 22.0226 17.0144 22.0226H11.0981Z" fill="black"/>
<path d="M21.3844 22.0226C20.7505 22.0226 20.2766 21.4404 20.4052 20.8197L21.8393 13.8996C21.8983 13.6151 22.2552 13.5178 22.4503 13.7331C22.6573 13.9614 22.4953 14.3269 22.1871 14.3269H20.9581C20.3866 14.3269 19.9598 13.801 20.0775 13.2417L20.1349 12.9686C20.2322 12.5057 20.6405 12.1743 21.1135 12.1743H23.8623C24.4963 12.1743 24.9703 12.7568 24.8415 13.3776L23.2124 21.2259C23.1161 21.6899 22.7072 22.0226 22.2333 22.0226H21.3844Z" fill="black"/>
<path d="M30.315 22.2768C29.8116 22.2768 29.3867 21.9026 29.3231 21.4033L28.3223 13.555C28.2461 12.9574 28.7118 12.4285 29.3143 12.4285H30.1432C30.6476 12.4285 31.073 12.8041 31.1355 13.3045L32.017 20.3551C32.0568 20.6733 31.8087 20.9543 31.488 20.9543C31.0829 20.9543 30.8258 20.5203 31.0205 20.165L34.9758 12.9479C35.1513 12.6277 35.4875 12.4285 35.8527 12.4285H37.0407C37.5489 12.4285 37.9763 12.8097 38.0342 13.3145L38.8463 20.3918C38.8807 20.6915 38.6463 20.9543 38.3446 20.9543C37.9614 20.9543 37.7178 20.5443 37.9011 20.2078L41.8536 12.9503C42.0288 12.6287 42.3657 12.4285 42.7318 12.4285H43.3171C44.0757 12.4285 44.558 13.2401 44.1955 13.9065L39.925 21.7548C39.7499 22.0765 39.4129 22.2768 39.0466 22.2768H37.4282C36.9239 22.2768 36.4985 21.9013 36.4359 21.4008L35.6837 15.3803C35.6605 15.195 35.8051 15.0313 35.9918 15.0313C36.2278 15.0313 36.3776 15.2842 36.2641 15.4911L32.8292 21.7575C32.6537 22.0777 32.3175 22.2768 31.9523 22.2768H30.315Z" fill="black"/>
<path d="M45.2203 22.2768C44.5862 22.2768 44.1123 21.6944 44.2411 21.0736L45.8702 13.2253C45.9665 12.7612 46.3754 12.4285 46.8493 12.4285H47.6978C48.3318 12.4285 48.8058 13.011 48.6769 13.6318L47.0478 21.4801C46.9515 21.9441 46.5427 22.2768 46.0687 22.2768H45.2203Z" fill="black"/>
<path d="M50.1682 22.2768C49.5342 22.2768 49.0602 21.6944 49.1891 21.0736L50.8182 13.2253C50.9145 12.7612 51.3234 12.4285 51.7973 12.4285H52.8106C53.1547 12.4285 53.4747 12.6055 53.6576 12.897L57.1735 18.4992C57.3112 18.7186 57.1487 19.003 56.8897 18.9956C56.688 18.9899 56.5405 18.8034 56.5814 18.6058L57.6958 13.2257C57.7919 12.7615 58.2009 12.4285 58.675 12.4285H59.4647C60.0987 12.4285 60.5727 13.011 60.4438 13.6318L58.8147 21.4801C58.7184 21.9441 58.3096 22.2768 57.8356 22.2768H56.8234C56.4787 22.2768 56.1583 22.0993 55.9755 21.807L52.4684 16.1989C52.333 15.9824 52.4934 15.7024 52.7487 15.7097C52.9475 15.7154 53.093 15.8994 53.0526 16.0942L51.9372 21.4796C51.841 21.9439 51.432 22.2768 50.9579 22.2768H50.1682Z" fill="black"/>
<path fill-rule="evenodd" clip-rule="evenodd" d="M0 17C0 7.61075 7.82648 0 17.4794 0C25.2605 0 31.8536 4.94411 34.119 11.7786L32.5369 14.8443L32.2103 12.07C32.1741 11.7629 32.0835 11.4756 31.9494 11.2187L31.978 11.2071C31.1747 9.31348 29.9926 7.60976 28.5204 6.1882L26.2202 8.42529C26.8361 9.01885 27.3881 9.67452 27.8659 10.3818C27.5581 10.5951 27.3041 10.8866 27.1275 11.2279C25.1303 8.08169 21.5524 5.98075 17.4794 5.98075C11.2319 5.98075 6.14941 10.9238 6.14941 17C6.14941 23.0762 11.2319 28.0193 17.4794 28.0193C22.1579 28.0193 26.183 25.2473 27.9098 21.3034L27.9857 21.9357C28.1274 23.1158 29.073 24 30.1932 24H32.015C32.7517 24 33.4353 23.6134 33.8477 22.9775C31.3602 29.4171 24.9703 34 17.4794 34C7.82648 34 0 26.3882 0 17ZM3.02134 11.1096C2.23614 12.9233 1.80297 14.9123 1.80297 17C1.80297 17.011 1.80325 17.022 1.80353 17.0329C1.8038 17.0436 1.80407 17.0541 1.80407 17.0643H5.05804C5.05804 17.0535 5.05777 17.0428 5.05749 17.0322C5.05722 17.0215 5.05695 17.0109 5.05695 17C5.05695 15.3419 5.40257 13.7606 6.02671 12.3204L3.02134 11.1096ZM22.2889 5.86035L23.5349 2.93741C21.67 2.1748 19.6249 1.75352 17.4794 1.75352C17.4681 1.75352 17.4568 1.7538 17.4456 1.75406C17.4346 1.75433 17.4238 1.75459 17.4133 1.75459V4.91931C17.4238 4.91931 17.4346 4.91905 17.4456 4.91879C17.4568 4.91852 17.4681 4.91825 17.4794 4.91825C19.1843 4.91825 20.8091 5.25439 22.2889 5.86035ZM12.7682 5.82303L11.5232 2.89903C9.57613 3.68037 7.82436 4.82999 6.36278 6.26085L8.6629 8.49794C9.82473 7.35868 11.2191 6.44353 12.7682 5.82303ZM5.98725 21.582L2.98079 22.7919C3.78306 24.6865 4.96518 26.3902 6.43741 27.8118L8.73759 25.5747C7.5662 24.4437 6.62525 23.0887 5.98725 21.582ZM12.6679 28.1386L11.4229 31.0615C13.2867 31.8252 15.3329 32.2465 17.4794 32.2464C17.4907 32.2464 17.5021 32.2461 17.5133 32.2459C17.5242 32.2456 17.535 32.2453 17.5456 32.2453V29.0807C17.535 29.0807 17.5242 29.0809 17.5133 29.0812C17.5021 29.0815 17.4907 29.0818 17.4794 29.0818C15.7746 29.0818 14.1487 28.7456 12.6679 28.1386ZM22.1907 28.177L23.4357 31.101C25.3827 30.3196 27.1345 29.17 28.5961 27.7392L26.2959 25.5021C25.1341 26.6414 23.7398 27.5565 22.1907 28.177Z" fill="black"/>
</svg>
