<svg width="59" height="73" viewBox="0 0 59 73" fill="none" xmlns="http://www.w3.org/2000/svg">
<g filter="url(#filter0_d_207_3815)">
<path d="M12.3612 30.0298C6.70941 18.7262 14.9291 5.42647 27.5669 5.42647C40.2048 5.42647 48.4244 18.7262 42.7726 30.0298L28.5505 58.4741C28.1452 59.2846 26.9886 59.2846 26.5834 58.4741L12.3612 30.0298Z" fill="#FF3636"/>
</g>
<circle cx="27.5666" cy="21.5515" r="10.4338" fill="white"/>
<path d="M31.8009 21.7127C31.7943 22.0371 31.7757 22.3599 31.7318 22.6789C31.5156 24.2443 30.6132 25.657 29.3189 26.5529C28.6372 27.0246 27.8374 27.3071 27.0005 27.23C26.151 27.1519 25.4222 26.7505 24.7746 26.2135C23.5756 25.2196 22.847 23.7287 22.7556 22.1789C22.7397 21.9123 22.7357 21.6444 22.7364 21.3763C22.8468 21.3892 22.9574 21.3998 23.066 21.4081C23.2011 21.4187 23.3528 21.4282 23.4899 21.4328L24.2582 21.4106C24.7466 21.3861 25.2179 21.3247 25.6642 21.2266C26.3251 21.0815 26.9347 20.8554 27.4763 20.555C27.4917 20.5467 27.5068 20.5382 27.5216 20.5296C27.5413 20.5185 27.5607 20.5074 27.5801 20.4961L27.5834 20.4943L27.5867 20.4923L27.6005 20.4842C27.6149 20.4759 27.6292 20.4674 27.6434 20.4588C27.6645 20.4464 27.6832 20.4351 27.7003 20.4243C27.7172 20.4139 27.7343 20.4031 27.751 20.3925L27.7517 20.3923L27.7525 20.3918C27.9092 20.2927 28.0609 20.1861 28.2063 20.0735H28.2207L28.4246 19.8951C28.4263 19.8938 28.4278 19.8923 28.4296 19.8908L28.5443 19.7917L28.5473 19.7859C28.5541 19.7799 28.5604 19.7738 28.5669 19.7678C28.573 19.762 28.5793 19.7565 28.5853 19.7509L28.5924 19.7444L28.5992 19.7378C28.6025 19.7348 28.6057 19.7315 28.6088 19.7285L28.612 19.7255L28.6151 19.7227C28.6312 19.7076 28.6468 19.6925 28.6624 19.6773L28.6655 19.6746L28.6682 19.6718C28.6861 19.6539 28.7033 19.6373 28.7202 19.6201C28.735 19.6055 28.7496 19.5906 28.764 19.5758C28.7925 19.547 28.8184 19.5193 28.8404 19.4959C28.8673 19.4669 28.895 19.4367 28.9223 19.4062L28.9235 19.4049L28.9245 19.4037C28.9467 19.3787 28.9757 19.3457 29.0057 19.3107C29.0107 19.3049 29.016 19.2986 29.0215 19.292C29.0384 19.2938 29.0551 19.2958 29.0719 19.2976L29.0782 19.2983L29.0845 19.2991C29.0906 19.2996 29.0964 19.3003 29.1022 19.3011L29.1072 19.3016L29.1125 19.3024L29.115 19.3026L29.1186 19.3031L29.1218 19.3034L29.1344 19.3049C29.1496 19.3066 29.1682 19.3087 29.1733 19.3097C29.1733 19.3097 29.1803 19.3109 29.201 19.3165L29.2105 19.3187L29.2113 19.319L29.2166 19.3205L29.2204 19.3215L29.2305 19.3245L29.2385 19.3271C29.2431 19.3283 29.2473 19.3298 29.2519 19.3313L29.2564 19.3326L29.263 19.3349L29.264 19.3351H29.2642C29.3635 19.3686 29.4615 19.3999 29.557 19.4296C29.7395 19.5176 29.8907 19.6184 30.0071 19.7282L30.0424 19.7635H30.0452L30.1031 19.8331L30.1213 19.86L30.1306 19.8694C30.1359 19.8774 30.1412 19.8855 30.1465 19.8935L30.1482 19.8963L30.15 19.8991L30.1543 19.9059L30.1558 19.9084L30.1586 19.9127L30.1626 19.9195C30.1734 19.9366 30.1835 19.9535 30.1931 19.9699L30.2435 20.072L30.278 20.1912L30.2813 20.2038C30.2813 20.2131 30.2815 20.2222 30.2818 20.2312V20.234C30.282 20.2395 30.2823 20.2451 30.2828 20.2506C30.2828 20.2526 30.2831 20.2549 30.2831 20.2569C30.2841 20.2726 30.2853 20.2859 30.2861 20.2955C30.2873 20.3096 30.2889 20.3217 30.2901 20.3315C30.3589 20.8935 30.7745 21.1752 30.9113 21.2677L30.9123 21.2685L30.9133 21.2692C30.9468 21.2916 30.9821 21.3143 31.0184 21.3368L31.0191 21.3373L31.0202 21.3378C31.186 21.4396 31.3531 21.5202 31.4806 21.5792C31.5151 21.5951 31.5496 21.6109 31.5841 21.6266L31.5914 21.6298C31.659 21.6646 31.729 21.6926 31.8009 21.7127Z" fill="#BCBCBC"/>
<path d="M32.483 20.6198C32.4817 20.6299 32.4805 20.6397 32.4787 20.6496C32.4747 20.7075 32.4588 20.7637 32.4313 20.8106C32.3872 20.8859 32.3255 20.9363 32.2554 20.9638C32.2554 20.9638 32.2554 20.964 32.2552 20.964C32.2534 20.9651 32.2516 20.9658 32.2496 20.9663C32.207 20.9845 32.1587 20.9953 32.105 20.9978C32.101 20.9981 32.0969 20.9981 32.0926 20.9981C32.0354 20.9981 31.9767 20.9802 31.923 20.9499C31.92 20.9487 31.9172 20.9474 31.9142 20.9462C31.8759 20.9288 31.8374 20.9114 31.7991 20.8935C31.6683 20.833 31.5377 20.7685 31.4153 20.6934C31.3883 20.6768 31.3616 20.6596 31.3354 20.642C31.1844 20.5397 31.0627 20.4243 31.0403 20.2385C31.0398 20.2345 31.0393 20.2305 31.039 20.2264C31.0385 20.2217 31.038 20.2169 31.0378 20.2121C31.0378 20.2106 31.0375 20.2091 31.0375 20.2075C31.0375 20.206 31.0373 20.2048 31.0373 20.2033V20.1972C31.037 20.1738 31.0363 20.1506 31.0347 20.1274C31.0347 20.1244 31.0347 20.1214 31.0345 20.1183C31.0342 20.1151 31.0337 20.108 31.033 20.1002C31.0327 20.0984 31.0327 20.0969 31.0325 20.0952C31.0325 20.0941 31.0322 20.0931 31.0322 20.0924C31.0322 20.0921 31.0322 20.0921 31.0322 20.0919C31.0322 20.0911 31.0322 20.0906 31.032 20.0896C31.032 20.0894 31.032 20.0891 31.0317 20.0886C31.031 20.0823 31.03 20.0763 31.0295 20.0745C31.0289 20.0717 31.0282 20.0687 31.0277 20.0659C31.0272 20.0639 31.0267 20.0621 31.0264 20.0601C31.0254 20.0536 31.0242 20.0473 31.0232 20.042C31.0133 19.9951 31.0012 19.9487 30.9869 19.9029C30.9846 19.8953 30.9821 19.8878 30.9798 19.8802C30.9763 19.8691 30.9725 19.8578 30.9687 19.8467C30.9687 19.8467 30.9644 19.8351 30.9596 19.822C30.9584 19.8187 30.9574 19.8157 30.9561 19.8124C30.9554 19.8106 30.9549 19.8089 30.9541 19.8074C30.9531 19.8041 30.9518 19.8008 30.9508 19.798C30.9506 19.797 30.9501 19.7958 30.9498 19.795C30.9496 19.794 30.9493 19.7935 30.9493 19.7935C30.9493 19.7933 30.9493 19.7933 30.9491 19.793C30.9491 19.7928 30.9491 19.7925 30.9488 19.7925C30.9475 19.7887 30.9468 19.7862 30.9465 19.7854V19.7852C30.9463 19.7847 30.9463 19.7844 30.9463 19.7844C30.9428 19.7761 30.939 19.7681 30.935 19.76C30.9344 19.7592 30.9342 19.7585 30.9339 19.758C30.9304 19.7494 30.9261 19.7411 30.9221 19.7325C30.9168 19.7222 30.9118 19.7116 30.9065 19.7013C30.8979 19.6839 30.8888 19.6665 30.8795 19.6491C30.8788 19.6479 30.8783 19.6466 30.8775 19.6453C30.8541 19.6017 30.8291 19.5591 30.8027 19.5171C30.7989 19.5108 30.7948 19.5045 30.7911 19.4984C30.789 19.4949 30.7868 19.4914 30.7845 19.4878C30.7827 19.4851 30.781 19.4823 30.779 19.4795C30.7699 19.4657 30.7608 19.4518 30.7512 19.4379C30.7487 19.4339 30.7462 19.4301 30.7434 19.4261C30.7386 19.419 30.7336 19.412 30.7283 19.4047C30.7258 19.4009 30.723 19.3971 30.72 19.3933C30.7192 19.3921 30.7182 19.3911 30.7172 19.3898C30.7162 19.3883 30.7152 19.387 30.7139 19.3855C30.7129 19.384 30.7119 19.3827 30.7107 19.3812C30.7104 19.3805 30.7097 19.3795 30.7087 19.3785C30.7066 19.3754 30.7044 19.3722 30.7021 19.3689C30.6993 19.3654 30.6966 19.3618 30.6933 19.3581C30.692 19.356 30.6903 19.3538 30.6885 19.3518C30.6877 19.3505 30.6865 19.349 30.6855 19.3477C30.6842 19.3455 30.6824 19.3434 30.6807 19.3412C30.6802 19.3404 30.6797 19.3397 30.6794 19.3392C30.6794 19.3386 30.6794 19.3386 30.6792 19.3386C30.6731 19.3308 30.6668 19.3233 30.6603 19.3157C30.6567 19.3114 30.6535 19.3074 30.6499 19.3031C30.6383 19.289 30.626 19.2749 30.6131 19.2605C30.6003 19.2457 30.5869 19.2305 30.5726 19.2157C30.5703 19.2129 30.5678 19.2104 30.5653 19.2076C30.5544 19.1958 30.5428 19.1837 30.5307 19.1716C30.5287 19.1693 30.5265 19.1673 30.5244 19.165C30.5222 19.1628 30.5202 19.1605 30.5179 19.1582C30.5083 19.1486 30.4985 19.1388 30.4884 19.129C30.4743 19.1149 30.4597 19.1013 30.4451 19.0874C30.434 19.0768 30.4224 19.0665 30.4108 19.0559C30.405 19.0506 30.3992 19.0453 30.3932 19.04C30.3808 19.0292 30.3685 19.0184 30.3559 19.0075C30.3559 19.0075 30.3559 19.0075 30.3556 19.0075C30.3541 19.006 30.3526 19.0047 30.3511 19.0037C30.3496 19.0025 30.348 19.001 30.3463 19C30.3359 18.9906 30.3256 18.9821 30.3148 18.9735C30.3145 18.9732 30.3143 18.973 30.314 18.9727C30.3138 18.9725 30.3135 18.9722 30.313 18.9722C30.313 18.9722 30.313 18.972 30.3128 18.972C30.3118 18.9717 30.3087 18.9695 30.3044 18.9664C30.3042 18.9664 30.3037 18.9662 30.3034 18.9657C30.3029 18.9652 30.3022 18.9647 30.3014 18.9642C30.3009 18.9637 30.3007 18.9634 30.3004 18.9632C30.3004 18.9632 30.3004 18.9629 30.3002 18.9629C30.2881 18.9536 30.2755 18.945 30.2631 18.9365C30.2614 18.9352 30.2596 18.9339 30.2578 18.9327C30.2571 18.9324 30.2566 18.9319 30.2561 18.9314C30.2515 18.9284 30.248 18.9256 30.246 18.9244C30.243 18.9223 30.2399 18.9203 30.2369 18.9183C30.2218 18.908 30.2062 18.8979 30.1905 18.8881C30.1777 18.8795 30.1646 18.8714 30.1512 18.8639C30.1142 18.8412 30.0761 18.82 30.0376 18.8004C30.0368 18.7999 30.0361 18.7996 30.0353 18.7994C30.0328 18.7981 30.0303 18.7968 30.0275 18.7956C30.0124 18.7878 29.997 18.7805 29.9816 18.7734H29.9814C29.9809 18.7729 29.9806 18.7727 29.9801 18.7727C29.9799 18.7724 29.9796 18.7724 29.9794 18.7724C29.9784 18.7722 29.9773 18.7716 29.9763 18.7714C29.9753 18.7711 29.9743 18.7706 29.9733 18.7704C29.9728 18.7701 29.9723 18.7699 29.9718 18.7696C29.9579 18.7651 29.9443 18.7601 29.9305 18.7555C29.928 18.7545 29.9257 18.7538 29.9232 18.753C29.9194 18.7517 29.9156 18.7505 29.9118 18.749C29.9073 18.7472 29.9038 18.7459 29.9015 18.7454C29.901 18.7452 29.9005 18.7449 29.9002 18.7449C29.899 18.7447 29.898 18.7442 29.8967 18.7439C29.7659 18.7029 29.6359 18.6628 29.5061 18.6189C29.4996 18.6167 29.493 18.6147 29.4867 18.6126C29.4814 18.6109 29.4761 18.6094 29.4711 18.6076C29.4638 18.6051 29.4567 18.6031 29.4497 18.601C29.4363 18.5968 29.4229 18.593 29.4096 18.5895C29.4033 18.5877 29.397 18.5862 29.3912 18.5847C29.3088 18.5632 29.2828 18.561 29.2088 18.5524C29.2047 18.5519 29.2004 18.5514 29.1959 18.5509C29.1838 18.5494 29.1712 18.5479 29.1583 18.5466C29.1102 18.5411 29.0623 18.536 29.0142 18.531C28.9648 18.5257 28.9152 18.5209 28.8658 18.5164C28.8549 18.5154 28.8439 18.5144 28.8325 18.5131C28.8076 18.5108 28.7826 18.5086 28.7577 18.5065C28.7325 18.5043 28.7073 18.502 28.6821 18.5C28.6821 18.5 28.6818 18.5 28.6816 18.5C28.6692 18.5174 28.6566 18.5348 28.6438 18.5519C28.638 18.5602 28.6319 18.5683 28.6254 18.5763C28.607 18.6013 28.5878 18.6262 28.5689 18.6507C28.5687 18.6509 28.5684 18.6512 28.5682 18.6514C28.5472 18.6782 28.5263 18.7046 28.5049 18.7308C28.5004 18.7366 28.4958 18.7422 28.4913 18.7475C28.4714 18.7719 28.451 18.7961 28.4306 18.82C28.4071 18.8475 28.3832 18.8747 28.3593 18.9017C28.3353 18.9284 28.3114 18.9546 28.2872 18.9806C28.2665 19.0027 28.2456 19.0249 28.2239 19.0466C28.2113 19.0597 28.1985 19.0728 28.1856 19.0856C28.1698 19.1015 28.1539 19.1171 28.1378 19.133C28.1236 19.1466 28.1095 19.1602 28.0952 19.1738C28.0884 19.1801 28.0816 19.1867 28.0747 19.1932C28.0569 19.2096 28.0392 19.2263 28.0211 19.2426C27.9931 19.2678 27.9649 19.2928 27.9367 19.3175C27.9364 19.3175 27.9361 19.3177 27.9359 19.3182C27.7512 19.4775 27.5546 19.6224 27.3485 19.7527C27.3329 19.7625 27.3167 19.7726 27.3009 19.7824C27.2867 19.7912 27.2729 19.7998 27.2585 19.8081C27.2401 19.8192 27.2215 19.83 27.2031 19.8409C27.1847 19.8515 27.1663 19.8621 27.1479 19.8724C27.136 19.8792 27.1242 19.886 27.1121 19.8925C26.1107 20.449 24.9502 20.6768 23.7923 20.6768C23.7013 20.6768 23.5022 20.6755 23.5022 20.6755C23.376 20.6712 23.2497 20.6642 23.1242 20.6543C22.9967 20.6445 22.8699 20.6317 22.7439 20.616C22.5449 20.5918 22.3475 20.5608 22.1533 20.523C22.0013 20.4933 21.8632 20.3116 21.8758 20.1584C21.8761 20.1544 21.8768 20.1503 21.8768 20.1463C21.8816 19.8492 21.9577 19.5334 22.0194 19.2439C22.1394 18.6799 22.3163 18.1318 22.5489 17.6041C22.8195 16.9903 23.1902 16.4046 23.6784 15.9402C24.226 15.4188 24.9205 15.0617 25.6717 14.9551C25.8803 14.9256 26.089 14.9118 26.2969 14.9118C26.345 14.9118 26.3929 14.9125 26.4408 14.914C26.5113 14.916 26.5816 14.9198 26.6517 14.9251C27.0118 14.9513 27.3686 15.0166 27.7192 15.1108C27.7887 15.1295 27.8583 15.1494 27.9276 15.1703C27.9737 15.1844 28.0198 15.1988 28.0657 15.2137C28.1115 15.2285 28.1572 15.2439 28.2028 15.2598C28.2484 15.2757 28.294 15.2918 28.3391 15.3084C28.3845 15.325 28.4296 15.3422 28.4747 15.3596C28.4971 15.3684 28.5195 15.3772 28.542 15.386C28.5598 15.379 28.5782 15.3724 28.5969 15.3664C28.6153 15.3606 28.6342 15.355 28.6533 15.3502C28.7683 15.321 28.892 15.3102 29.0122 15.3102C29.1102 15.3102 29.2057 15.3172 29.2929 15.3273C30.1807 15.4296 31.0153 15.9041 31.573 16.6017C32.4764 17.7314 32.647 19.2217 32.483 20.6198Z" fill="#BCBCBC"/>
<defs>
<filter id="filter0_d_207_3815" x="6.54492" y="0.426468" width="52.0439" height="71.6555" filterUnits="userSpaceOnUse" color-interpolation-filters="sRGB">
<feFlood flood-opacity="0" result="BackgroundImageFix"/>
<feColorMatrix in="SourceAlpha" type="matrix" values="0 0 0 0 0 0 0 0 0 0 0 0 0 0 0 0 0 0 127 0" result="hardAlpha"/>
<feOffset dx="5" dy="4"/>
<feGaussianBlur stdDeviation="4.5"/>
<feComposite in2="hardAlpha" operator="out"/>
<feColorMatrix type="matrix" values="0 0 0 0 0 0 0 0 0 0 0 0 0 0 0 0 0 0 0.24 0"/>
<feBlend mode="normal" in2="BackgroundImageFix" result="effect1_dropShadow_207_3815"/>
<feBlend mode="normal" in="SourceGraphic" in2="effect1_dropShadow_207_3815" result="shape"/>
</filter>
</defs>
</svg>
